<svg xmlns="http://www.w3.org/2000/svg" version="1.1" xmlns:xlink="http://www.w3.org/1999/xlink" width="512" height="512" x="0" y="0" viewBox="0 0 24 24" style="enable-background:new 0 0 512 512" xml:space="preserve" class=""><g><path d="M9 14h6a1 1 0 0 0 0-2H9a1 1 0 0 0 0 2Z" fill="#ffffff" opacity="1" data-original="#000000" class=""></path><path d="M19 0H5a5.006 5.006 0 0 0-5 5v1a3 3 0 0 0 1 2.234V19a5.006 5.006 0 0 0 5 5h12a5.006 5.006 0 0 0 5-5V8.234A3 3 0 0 0 24 6V5a5.006 5.006 0 0 0-5-5ZM2 5a3 3 0 0 1 3-3h14a3 3 0 0 1 3 3v1a1 1 0 0 1-1 1H3a1 1 0 0 1-1-1Zm19 14a3 3 0 0 1-3 3H6a3 3 0 0 1-3-3V9h18Z" fill="#ffffff" opacity="1" data-original="#000000" class=""></path></g></svg>