<svg xmlns="http://www.w3.org/2000/svg" version="1.1" xmlns:xlink="http://www.w3.org/1999/xlink" width="512" height="512" x="0" y="0" viewBox="0 0 24 24" style="enable-background:new 0 0 512 512" xml:space="preserve" class=""><g><path d="M19 2.02V1.5c0-.83-.67-1.5-1.5-1.5S16 .67 16 1.5V2H8v-.5C8 .67 7.33 0 6.5 0S5 .67 5 1.5v.52c-2.8.26-5 2.62-5 5.48v11C0 21.53 2.47 24 5.5 24h13c3.03 0 5.5-2.47 5.5-5.5v-11c0-2.86-2.2-5.22-5-5.48ZM10 14v-4h4v4h-4Zm4 3v4h-4v-4h4ZM3 10h4v4H3v-4Zm14 0h4v4h-4v-4ZM5.5 5h13a2.5 2.5 0 0 1 2.45 2H3.05A2.5 2.5 0 0 1 5.5 5ZM3 18.5V17h4v4H5.5A2.5 2.5 0 0 1 3 18.5ZM18.5 21H17v-4h4v1.5a2.5 2.5 0 0 1-2.5 2.5Z" fill="#ffffff" opacity="1" data-original="#000000"></path></g></svg>