<svg xmlns="http://www.w3.org/2000/svg" version="1.1" xmlns:xlink="http://www.w3.org/1999/xlink" width="512" height="512" x="0" y="0" viewBox="0 0 24 24" style="enable-background:new 0 0 512 512" xml:space="preserve" class=""><g><path d="M12 24C5.383 24 0 18.617 0 12S5.383 0 12 0s12 5.383 12 12-5.383 12-12 12Zm0-21c-4.962 0-9 4.038-9 9s4.038 9 9 9 9-4.038 9-9-4.038-9-9-9Zm2 14.5v-6a1.5 1.5 0 0 0-2.25-1.299l-3.464 2a1.5 1.5 0 0 0 1.5 2.598L11 14.098V17.5a1.5 1.5 0 1 0 3 0Z" fill="rgb(255, 123, 0)" opacity="1" data-original="#000000" class=""></path></g></svg>